# xmcd CD database file
#
# Track frame offsets:
#	150
#	22181
#	32926
#	56153
#	73123
#	96835
#
# Disc length: 1743 seconds
#
# Revision: 1
# Processed by: cddbd v1.5.1PL2 Copyright (c) Steve Scherf et al.
# Submitted via: CDex 1.51
#
DISCID=5606cd06
DTITLE=Nickelback - 2006-03-23-Bobcat Arena-Charlotte, NC[CD2]
DYEAR=2006
DGENRE=Blues
TTITLE0=How You Remind Me
TTITLE1=Banter
TTITLE2=Too Bad
TTITLE3=Encore
TTITLE4=Rockstar
TTITLE5=Figured You Out
EXTD=YEAR: 2006
EXTT0=
EXTT1=
EXTT2=
EXTT3=
EXTT4=
EXTT5=
PLAYORDER=
